STARTFONT 2.1
FONT -DEC-Terminal-Medium-R-Wide--14-140-75-75-C-120-iso8859-2
SIZE 14 75 75
FONTBOUNDINGBOX 12 15 0 -3

STARTPROPERTIES 24
FOUNDRY "Monotype"
FAMILY_NAME "VT"
WEIGHT_NAME "Regular"
SLANT "R"
SETWIDTH_NAME "Wide"
ADD_STYLE_NAME ""
PIXEL_SIZE 14
POINT_SIZE 140
RESOLUTION_X 75
RESOLUTION_Y 75
SPACING "C"
AVERAGE_WIDTH 120
CHARSET_REGISTRY "iso8859"
CHARSET_ENCODING "2"
FACE_NAME "VT Wide ISO Latin2"
_DEC_DEVICE_FONTNAMES "PS=vt-wide-isolatin2"
COPYRIGHT "Copyright (c) 1993 Monotype Typography Ltd."
CAP_HEIGHT 8
X_HEIGHT 6
WEIGHT 10
QUAD_WIDTH 12
DEFAULT_CHAR 160
FONT_DESCENT 3
FONT_ASCENT 12
ENDPROPERTIES

CHARS 191

STARTCHAR space
ENCODING 32
SWIDTH 723 0
DWIDTH 12 0
BBX 12 15 0 -3
BITMAP
0000
0000
0000
0000
0000
0000
0000
0000
0000
0000
0000
0000
0000
0000
0000
ENDCHAR

STARTCHAR exclam
ENCODING 33
SWIDTH 723 0
DWIDTH 12 0
BBX 12 15 0 -3
BITMAP
0000
0000
0000
0000
0600
0600
0600
0600
0600
0600
0000
0600
0000
0000
0000
ENDCHAR

STARTCHAR quotedbl
ENCODING 34
SWIDTH 723 0
DWIDTH 12 0
BBX 12 15 0 -3
BITMAP
0000
0000
0000
1980
1980
1980
0000
0000
0000
0000
0000
0000
0000
0000
0000
ENDCHAR

STARTCHAR numbersign
ENCODING 35
SWIDTH 723 0
DWIDTH 12 0
BBX 12 15 0 -3
BITMAP
0000
0000
0000
0000
1980
1980
7FE0
1980
7FE0
1980
1980
0000
0000
0000
0000
ENDCHAR

STARTCHAR dollar
ENCODING 36
SWIDTH 723 0
DWIDTH 12 0
BBX 12 15 0 -3
BITMAP
0000
0000
0000
0000
0600
3FC0
6620
3FC0
0660
6660
3FC0
0600
0000
0000
0000
ENDCHAR

STARTCHAR percent
ENCODING 37
SWIDTH 723 0
DWIDTH 12 0
BBX 12 15 0 -3
BITMAP
0000
0000
0000
0000
1C60
22C0
1D80
0300
0600
0DC0
1A20
31C0
0000
0000
0000
ENDCHAR

STARTCHAR ampersand
ENCODING 38
SWIDTH 723 0
DWIDTH 12 0
BBX 12 15 0 -3
BITMAP
0000
0000
0000
0000
0F00
1980
1980
0F20
31A0
60C0
60C0
3F20
0000
0000
0000
ENDCHAR

STARTCHAR quoteright
ENCODING 39
SWIDTH 723 0
DWIDTH 12 0
BBX 12 15 0 -3
BITMAP
0000
0000
0000
0300
0300
0100
0200
0000
0000
0000
0000
0000
0000
0000
0000
ENDCHAR

STARTCHAR parenleft
ENCODING 40
SWIDTH 723 0
DWIDTH 12 0
BBX 12 15 0 -3
BITMAP
0000
0000
0000
01C0
0300
0600
0C00
0C00
0C00
0C00
0600
0300
01C0
0000
0000
ENDCHAR

STARTCHAR parenright
ENCODING 41
SWIDTH 723 0
DWIDTH 12 0
BBX 12 15 0 -3
BITMAP
0000
0000
0000
0E00
0300
0180
00C0
00C0
00C0
00C0
0180
0300
0E00
0000
0000
ENDCHAR

STARTCHAR asterisk
ENCODING 42
SWIDTH 723 0
DWIDTH 12 0
BBX 12 15 0 -3
BITMAP
0000
0000
0000
0000
0600
6660
1F80
1F80
6660
0600
0000
0000
0000
0000
0000
ENDCHAR

STARTCHAR plus
ENCODING 43
SWIDTH 723 0
DWIDTH 12 0
BBX 12 15 0 -3
BITMAP
0000
0000
0000
0600
0600
0600
7FE0
0600
0600
0600
0000
0000
0000
0000
0000
ENDCHAR

STARTCHAR comma
ENCODING 44
SWIDTH 723 0
DWIDTH 12 0
BBX 12 15 0 -3
BITMAP
0000
0000
0000
0000
0000
0000
0000
0000
0000
0000
0C00
0C00
1800
0000
0000
ENDCHAR

STARTCHAR minus
ENCODING 45
SWIDTH 723 0
DWIDTH 12 0
BBX 12 15 0 -3
BITMAP
0000
0000
0000
0000
0000
0000
0000
3FE0
0000
0000
0000
0000
0000
0000
0000
ENDCHAR

STARTCHAR period
ENCODING 46
SWIDTH 723 0
DWIDTH 12 0
BBX 12 15 0 -3
BITMAP
0000
0000
0000
0000
0000
0000
0000
0000
0000
0000
0600
0600
0000
0000
0000
ENDCHAR

STARTCHAR slash
ENCODING 47
SWIDTH 723 0
DWIDTH 12 0
BBX 12 15 0 -3
BITMAP
0000
0000
0000
0000
0060
00C0
0180
0300
0600
0C00
1800
3000
0000
0000
0000
ENDCHAR

STARTCHAR zero
ENCODING 48
SWIDTH 723 0
DWIDTH 12 0
BBX 12 15 0 -3
BITMAP
0000
0000
0000
0000
0F00
30C0
6060
6060
6060
6060
30C0
0F00
0000
0000
0000
ENDCHAR

STARTCHAR one
ENCODING 49
SWIDTH 723 0
DWIDTH 12 0
BBX 12 15 0 -3
BITMAP
0000
0000
0000
0000
0200
0600
0E00
1E00
0600
0600
0600
3FC0
0000
0000
0000
ENDCHAR

STARTCHAR two
ENCODING 50
SWIDTH 723 0
DWIDTH 12 0
BBX 12 15 0 -3
BITMAP
0000
0000
0000
0000
3F80
60C0
00C0
0380
0F00
1E00
7800
7FE0
0000
0000
0000
ENDCHAR

STARTCHAR three
ENCODING 51
SWIDTH 723 0
DWIDTH 12 0
BBX 12 15 0 -3
BITMAP
0000
0000
0000
0000
3FC0
6060
0060
07C0
0060
0060
6060
3FC0
0000
0000
0000
ENDCHAR

STARTCHAR four
ENCODING 52
SWIDTH 723 0
DWIDTH 12 0
BBX 12 15 0 -3
BITMAP
0000
0000
0000
0000
0180
0380
0580
0980
1180
2180
7FE0
0180
0000
0000
0000
ENDCHAR

STARTCHAR five
ENCODING 53
SWIDTH 723 0
DWIDTH 12 0
BBX 12 15 0 -3
BITMAP
0000
0000
0000
0000
7FE0
6000
6000
7FC0
6060
0060
6060
3FC0
0000
0000
0000
ENDCHAR

STARTCHAR six
ENCODING 54
SWIDTH 723 0
DWIDTH 12 0
BBX 12 15 0 -3
BITMAP
0000
0000
0000
0000
0FC0
3000
6000
7FC0
6060
6060
6060
3FC0
0000
0000
0000
ENDCHAR

STARTCHAR seven
ENCODING 55
SWIDTH 723 0
DWIDTH 12 0
BBX 12 15 0 -3
BITMAP
0000
0000
0000
0000
7FC0
00C0
0180
0300
0600
0C00
1800
3000
0000
0000
0000
ENDCHAR

STARTCHAR eight
ENCODING 56
SWIDTH 723 0
DWIDTH 12 0
BBX 12 15 0 -3
BITMAP
0000
0000
0000
0000
3FC0
6060
6060
3FC0
6060
6060
6060
3FC0
0000
0000
0000
ENDCHAR

STARTCHAR nine
ENCODING 57
SWIDTH 723 0
DWIDTH 12 0
BBX 12 15 0 -3
BITMAP
0000
0000
0000
0000
3FC0
6060
6060
6060
3FE0
0060
00C0
3F80
0000
0000
0000
ENDCHAR

STARTCHAR colon
ENCODING 58
SWIDTH 723 0
DWIDTH 12 0
BBX 12 15 0 -3
BITMAP
0000
0000
0000
0000
0000
0000
0C00
0C00
0000
0000
0C00
0C00
0000
0000
0000
ENDCHAR

STARTCHAR semicolon
ENCODING 59
SWIDTH 723 0
DWIDTH 12 0
BBX 12 15 0 -3
BITMAP
0000
0000
0000
0000
0000
0000
1800
1800
0000
0000
1800
1800
3000
0000
0000
ENDCHAR

STARTCHAR less
ENCODING 60
SWIDTH 723 0
DWIDTH 12 0
BBX 12 15 0 -3
BITMAP
0000
0000
0000
0000
0000
00C0
0300
0C00
3000
0C00
0300
00C0
0000
0000
0000
ENDCHAR

STARTCHAR equal
ENCODING 61
SWIDTH 723 0
DWIDTH 12 0
BBX 12 15 0 -3
BITMAP
0000
0000
0000
0000
0000
0000
0000
0000
3FE0
0000
3FE0
0000
0000
0000
0000
ENDCHAR

STARTCHAR greater
ENCODING 62
SWIDTH 723 0
DWIDTH 12 0
BBX 12 15 0 -3
BITMAP
0000
0000
0000
0000
0000
3000
0C00
0300
00C0
0300
0C00
3000
0000
0000
0000
ENDCHAR

STARTCHAR question
ENCODING 63
SWIDTH 723 0
DWIDTH 12 0
BBX 12 15 0 -3
BITMAP
0000
0000
0000
0000
3FC0
6060
0060
03C0
0600
0000
0600
0600
0000
0000
0000
ENDCHAR

STARTCHAR at
ENCODING 64
SWIDTH 723 0
DWIDTH 12 0
BBX 12 15 0 -3
BITMAP
0000
0000
0000
0000
3FC0
6060
63E0
66E0
66E0
63E0
6000
3FE0
0000
0000
0000
ENDCHAR

STARTCHAR A
ENCODING 65
SWIDTH 723 0
DWIDTH 12 0
BBX 12 15 0 -3
BITMAP
0000
0000
0000
0000
0F00
1980
30C0
30C0
7FE0
6060
6060
6060
0000
0000
0000
ENDCHAR

STARTCHAR B
ENCODING 66
SWIDTH 723 0
DWIDTH 12 0
BBX 12 15 0 -3
BITMAP
0000
0000
0000
0000
7FC0
6060
6060
7FC0
6060
6060
6060
7FC0
0000
0000
0000
ENDCHAR

STARTCHAR C
ENCODING 67
SWIDTH 723 0
DWIDTH 12 0
BBX 12 15 0 -3
BITMAP
0000
0000
0000
0000
3FC0
6060
6000
6000
6000
6000
6060
3FC0
0000
0000
0000
ENDCHAR

STARTCHAR D
ENCODING 68
SWIDTH 723 0
DWIDTH 12 0
BBX 12 15 0 -3
BITMAP
0000
0000
0000
0000
3FC0
3060
3060
3060
3060
3060
3060
3FC0
0000
0000
0000
ENDCHAR

STARTCHAR E
ENCODING 69
SWIDTH 723 0
DWIDTH 12 0
BBX 12 15 0 -3
BITMAP
0000
0000
0000
0000
3FE0
3000
3000
3FC0
3000
3000
3000
3FE0
0000
0000
0000
ENDCHAR

STARTCHAR F
ENCODING 70
SWIDTH 723 0
DWIDTH 12 0
BBX 12 15 0 -3
BITMAP
0000
0000
0000
0000
3FE0
3000
3000
3000
3FC0
3000
3000
3000
0000
0000
0000
ENDCHAR

STARTCHAR G
ENCODING 71
SWIDTH 723 0
DWIDTH 12 0
BBX 12 15 0 -3
BITMAP
0000
0000
0000
0000
3FC0
6060
6000
6000
61E0
6060
6060
3FC0
0000
0000
0000
ENDCHAR

STARTCHAR H
ENCODING 72
SWIDTH 723 0
DWIDTH 12 0
BBX 12 15 0 -3
BITMAP
0000
0000
0000
0000
6060
6060
6060
7FE0
6060
6060
6060
6060
0000
0000
0000
ENDCHAR

STARTCHAR I
ENCODING 73
SWIDTH 723 0
DWIDTH 12 0
BBX 12 15 0 -3
BITMAP
0000
0000
0000
0000
7FE0
0600
0600
0600
0600
0600
0600
7FE0
0000
0000
0000
ENDCHAR

STARTCHAR J
ENCODING 74
SWIDTH 723 0
DWIDTH 12 0
BBX 12 15 0 -3
BITMAP
0000
0000
0000
0000
1FE0
0180
0180
0180
0180
0180
6180
3F00
0000
0000
0000
ENDCHAR

STARTCHAR K
ENCODING 75
SWIDTH 723 0
DWIDTH 12 0
BBX 12 15 0 -3
BITMAP
0000
0000
0000
0000
6060
6180
6600
7800
7800
6600
6180
6060
0000
0000
0000
ENDCHAR

STARTCHAR L
ENCODING 76
SWIDTH 723 0
DWIDTH 12 0
BBX 12 15 0 -3
BITMAP
0000
0000
0000
0000
3000
3000
3000
3000
3000
3000
3000
3FE0
0000
0000
0000
ENDCHAR

STARTCHAR M
ENCODING 77
SWIDTH 723 0
DWIDTH 12 0
BBX 12 15 0 -3
BITMAP
0000
0000
0000
0000
6060
70E0
79E0
6F60
6660
6660
6060
6060
0000
0000
0000
ENDCHAR

STARTCHAR N
ENCODING 78
SWIDTH 723 0
DWIDTH 12 0
BBX 12 15 0 -3
BITMAP
0000
0000
0000
0000
6060
7060
7860
6C60
6660
6360
61E0
60E0
0000
0000
0000
ENDCHAR

STARTCHAR O
ENCODING 79
SWIDTH 723 0
DWIDTH 12 0
BBX 12 15 0 -3
BITMAP
0000
0000
0000
0000
3FC0
6060
6060
6060
6060
6060
6060
3FC0
0000
0000
0000
ENDCHAR

STARTCHAR P
ENCODING 80
SWIDTH 723 0
DWIDTH 12 0
BBX 12 15 0 -3
BITMAP
0000
0000
0000
0000
7FC0
6060
6060
6060
7FC0
6000
6000
6000
0000
0000
0000
ENDCHAR

STARTCHAR Q
ENCODING 81
SWIDTH 723 0
DWIDTH 12 0
BBX 12 15 0 -3
BITMAP
0000
0000
0000
0000
7FC0
C060
C060
C060
C060
C060
C1E0
7FC0
0060
0000
0000
ENDCHAR

STARTCHAR R
ENCODING 82
SWIDTH 723 0
DWIDTH 12 0
BBX 12 15 0 -3
BITMAP
0000
0000
0000
0000
7FC0
6060
6060
6060
7FC0
6180
60C0
6060
0000
0000
0000
ENDCHAR

STARTCHAR S
ENCODING 83
SWIDTH 723 0
DWIDTH 12 0
BBX 12 15 0 -3
BITMAP
0000
0000
0000
0000
3FC0
6060
6000
3FC0
0060
0060
6060
3FC0
0000
0000
0000
ENDCHAR

STARTCHAR T
ENCODING 84
SWIDTH 723 0
DWIDTH 12 0
BBX 12 15 0 -3
BITMAP
0000
0000
0000
0000
7FE0
0600
0600
0600
0600
0600
0600
0600
0000
0000
0000
ENDCHAR

STARTCHAR U
ENCODING 85
SWIDTH 723 0
DWIDTH 12 0
BBX 12 15 0 -3
BITMAP
0000
0000
0000
0000
6060
6060
6060
6060
6060
6060
6060
3FC0
0000
0000
0000
ENDCHAR

STARTCHAR V
ENCODING 86
SWIDTH 723 0
DWIDTH 12 0
BBX 12 15 0 -3
BITMAP
0000
0000
0000
0000
6060
6060
6060
6060
30C0
1980
0F00
0600
0000
0000
0000
ENDCHAR

STARTCHAR W
ENCODING 87
SWIDTH 723 0
DWIDTH 12 0
BBX 12 15 0 -3
BITMAP
0000
0000
0000
0000
6060
6060
6060
6660
6660
6F60
39C0
1080
0000
0000
0000
ENDCHAR

STARTCHAR X
ENCODING 88
SWIDTH 723 0
DWIDTH 12 0
BBX 12 15 0 -3
BITMAP
0000
0000
0000
0000
6060
30C0
1980
0F00
0F00
1980
30C0
6060
0000
0000
0000
ENDCHAR

STARTCHAR Y
ENCODING 89
SWIDTH 723 0
DWIDTH 12 0
BBX 12 15 0 -3
BITMAP
0000
0000
0000
0000
6060
30C0
1980
0F00
0600
0600
0600
0600
0000
0000
0000
ENDCHAR

STARTCHAR Z
ENCODING 90
SWIDTH 723 0
DWIDTH 12 0
BBX 12 15 0 -3
BITMAP
0000
0000
0000
0000
7FC0
0180
0300
0600
0C00
1800
3000
7FC0
0000
0000
0000
ENDCHAR

STARTCHAR bracketleft
ENCODING 91
SWIDTH 723 0
DWIDTH 12 0
BBX 12 15 0 -3
BITMAP
0000
0000
0000
0FC0
0C00
0C00
0C00
0C00
0C00
0C00
0C00
0C00
0FC0
0000
0000
ENDCHAR

STARTCHAR backslash
ENCODING 92
SWIDTH 723 0
DWIDTH 12 0
BBX 12 15 0 -3
BITMAP
0000
0000
0000
0000
3000
1800
0C00
0600
0300
0180
00C0
0060
0000
0000
0000
ENDCHAR

STARTCHAR bracketright
ENCODING 93
SWIDTH 723 0
DWIDTH 12 0
BBX 12 15 0 -3
BITMAP
0000
0000
0000
1F80
0180
0180
0180
0180
0180
0180
0180
0180
1F80
0000
0000
ENDCHAR

STARTCHAR asciicircum
ENCODING 94
SWIDTH 723 0
DWIDTH 12 0
BBX 12 15 0 -3
BITMAP
0000
0000
0000
0600
1980
6060
0000
0000
0000
0000
0000
0000
0000
0000
0000
ENDCHAR

STARTCHAR underscore
ENCODING 95
SWIDTH 723 0
DWIDTH 12 0
BBX 12 15 0 -3
BITMAP
0000
0000
0000
0000
0000
0000
0000
0000
0000
0000
0000
7FE0
0000
0000
0000
ENDCHAR

STARTCHAR quoteleft
ENCODING 96
SWIDTH 723 0
DWIDTH 12 0
BBX 12 15 0 -3
BITMAP
0000
0000
0000
0600
0600
0400
0200
0000
0000
0000
0000
0000
0000
0000
0000
ENDCHAR

STARTCHAR a
ENCODING 97
SWIDTH 723 0
DWIDTH 12 0
BBX 12 15 0 -3
BITMAP
0000
0000
0000
0000
0000
0000
1FC0
0060
3FE0
6060
6060
3FB0
0000
0000
0000
ENDCHAR

STARTCHAR b
ENCODING 98
SWIDTH 723 0
DWIDTH 12 0
BBX 12 15 0 -3
BITMAP
0000
0000
0000
0000
6000
6000
6FC0
7060
6060
6060
7060
6FC0
0000
0000
0000
ENDCHAR

STARTCHAR c
ENCODING 99
SWIDTH 723 0
DWIDTH 12 0
BBX 12 15 0 -3
BITMAP
0000
0000
0000
0000
0000
0000
3FC0
6060
6000
6000
6060
3FC0
0000
0000
0000
ENDCHAR

STARTCHAR d
ENCODING 100
SWIDTH 723 0
DWIDTH 12 0
BBX 12 15 0 -3
BITMAP
0000
0000
0000
0000
0060
0060
3F60
60E0
6060
6060
60E0
3F60
0000
0000
0000
ENDCHAR

STARTCHAR e
ENCODING 101
SWIDTH 723 0
DWIDTH 12 0
BBX 12 15 0 -3
BITMAP
0000
0000
0000
0000
0000
0000
3FC0
6060
7FE0
6000
6060
3FC0
0000
0000
0000
ENDCHAR

STARTCHAR f
ENCODING 102
SWIDTH 723 0
DWIDTH 12 0
BBX 12 15 0 -3
BITMAP
0000
0000
0000
0000
0FE0
1800
1800
7FC0
1800
1800
1800
1800
0000
0000
0000
ENDCHAR

STARTCHAR g
ENCODING 103
SWIDTH 723 0
DWIDTH 12 0
BBX 12 15 0 -3
BITMAP
0000
0000
0000
0000
0000
0000
3FE0
6060
6060
6060
3FE0
0060
00C0
3F00
0000
ENDCHAR

STARTCHAR h
ENCODING 104
SWIDTH 723 0
DWIDTH 12 0
BBX 12 15 0 -3
BITMAP
0000
0000
0000
0000
6000
6000
6FC0
7060
6060
6060
6060
6060
0000
0000
0000
ENDCHAR

STARTCHAR i
ENCODING 105
SWIDTH 723 0
DWIDTH 12 0
BBX 12 15 0 -3
BITMAP
0000
0000
0000
0000
0600
0000
1E00
0600
0600
0600
0600
7FE0
0000
0000
0000
ENDCHAR

STARTCHAR j
ENCODING 106
SWIDTH 723 0
DWIDTH 12 0
BBX 12 15 0 -3
BITMAP
0000
0000
0000
0000
00C0
0000
07C0
00C0
00C0
00C0
00C0
00C0
00C0
1F80
0000
ENDCHAR

STARTCHAR k
ENCODING 107
SWIDTH 723 0
DWIDTH 12 0
BBX 12 15 0 -3
BITMAP
0000
0000
0000
0000
6000
6000
6180
6600
7800
6600
6180
6060
0000
0000
0000
ENDCHAR

STARTCHAR l
ENCODING 108
SWIDTH 723 0
DWIDTH 12 0
BBX 12 15 0 -3
BITMAP
0000
0000
0000
0000
1E00
0600
0600
0600
0600
0600
0600
7FE0
0000
0000
0000
ENDCHAR

STARTCHAR m
ENCODING 109
SWIDTH 723 0
DWIDTH 12 0
BBX 12 15 0 -3
BITMAP
0000
0000
0000
0000
0000
0000
79C0
6660
6660
6660
6660
6660
0000
0000
0000
ENDCHAR

STARTCHAR n
ENCODING 110
SWIDTH 723 0
DWIDTH 12 0
BBX 12 15 0 -3
BITMAP
0000
0000
0000
0000
0000
0000
6FC0
7060
6060
6060
6060
6060
0000
0000
0000
ENDCHAR

STARTCHAR o
ENCODING 111
SWIDTH 723 0
DWIDTH 12 0
BBX 12 15 0 -3
BITMAP
0000
0000
0000
0000
0000
0000
3FC0
6060
6060
6060
6060
3FC0
0000
0000
0000
ENDCHAR

STARTCHAR p
ENCODING 112
SWIDTH 723 0
DWIDTH 12 0
BBX 12 15 0 -3
BITMAP
0000
0000
0000
0000
0000
0000
6FC0
7060
6060
6060
7060
6FC0
6000
6000
6000
ENDCHAR

STARTCHAR q
ENCODING 113
SWIDTH 723 0
DWIDTH 12 0
BBX 12 15 0 -3
BITMAP
0000
0000
0000
0000
0000
0000
7EC0
C1C0
C0C0
C0C0
C1C0
7EC0
00C0
00C0
00C0
ENDCHAR

STARTCHAR r
ENCODING 114
SWIDTH 723 0
DWIDTH 12 0
BBX 12 15 0 -3
BITMAP
0000
0000
0000
0000
0000
0000
3BC0
1C60
1800
1800
1800
1800
0000
0000
0000
ENDCHAR

STARTCHAR s
ENCODING 115
SWIDTH 723 0
DWIDTH 12 0
BBX 12 15 0 -3
BITMAP
0000
0000
0000
0000
0000
0000
3FC0
6020
3FC0
0060
6060
3FC0
0000
0000
0000
ENDCHAR

STARTCHAR t
ENCODING 116
SWIDTH 723 0
DWIDTH 12 0
BBX 12 15 0 -3
BITMAP
0000
0000
0000
0000
1800
1800
7F80
1800
1800
1800
1800
0FC0
0000
0000
0000
ENDCHAR

STARTCHAR u
ENCODING 117
SWIDTH 723 0
DWIDTH 12 0
BBX 12 15 0 -3
BITMAP
0000
0000
0000
0000
0000
0000
6060
6060
6060
6060
60E0
3F60
0000
0000
0000
ENDCHAR

STARTCHAR v
ENCODING 118
SWIDTH 723 0
DWIDTH 12 0
BBX 12 15 0 -3
BITMAP
0000
0000
0000
0000
0000
0000
6060
6060
30C0
1980
0F00
0600
0000
0000
0000
ENDCHAR

STARTCHAR w
ENCODING 119
SWIDTH 723 0
DWIDTH 12 0
BBX 12 15 0 -3
BITMAP
0000
0000
0000
0000
0000
0000
6060
6060
6660
6660
6F60
39C0
0000
0000
0000
ENDCHAR

STARTCHAR x
ENCODING 120
SWIDTH 723 0
DWIDTH 12 0
BBX 12 15 0 -3
BITMAP
0000
0000
0000
0000
0000
0000
70E0
1980
0F00
0F00
1980
70E0
0000
0000
0000
ENDCHAR

STARTCHAR y
ENCODING 121
SWIDTH 723 0
DWIDTH 12 0
BBX 12 15 0 -3
BITMAP
0000
0000
0000
0000
0000
0000
6060
6060
30C0
1980
0F00
0600
0C00
3800
0000
ENDCHAR

STARTCHAR z
ENCODING 122
SWIDTH 723 0
DWIDTH 12 0
BBX 12 15 0 -3
BITMAP
0000
0000
0000
0000
0000
0000
3FE0
00E0
0380
0E00
3800
3FE0
0000
0000
0000
ENDCHAR

STARTCHAR braceleft
ENCODING 123
SWIDTH 723 0
DWIDTH 12 0
BBX 12 15 0 -3
BITMAP
0000
0000
0000
07C0
0C00
0C00
0600
3C00
0600
0C00
0C00
0C00
07C0
0000
0000
ENDCHAR

STARTCHAR bar
ENCODING 124
SWIDTH 723 0
DWIDTH 12 0
BBX 12 15 0 -3
BITMAP
0000
0000
0000
0C00
0C00
0C00
0C00
0C00
0C00
0C00
0C00
0C00
0C00
0000
0000
ENDCHAR

STARTCHAR braceright
ENCODING 125
SWIDTH 723 0
DWIDTH 12 0
BBX 12 15 0 -3
BITMAP
0000
0000
0000
1F00
0180
0180
0300
01E0
0300
0180
0180
0180
1F00
0000
0000
ENDCHAR

STARTCHAR asciitilde
ENCODING 126
SWIDTH 723 0
DWIDTH 12 0
BBX 12 15 0 -3
BITMAP
0000
0000
0000
3C60
6660
63C0
0000
0000
0000
0000
0000
0000
0000
0000
0000
ENDCHAR

STARTCHAR space
ENCODING 160
SWIDTH 723 0
DWIDTH 12 0
BBX 12 15 0 -3
BITMAP
0000
0000
0000
0000
0000
0000
0000
0000
0000
0000
0000
0000
0000
0000
0000
ENDCHAR

STARTCHAR Aogonek
ENCODING 161
SWIDTH 723 0
DWIDTH 12 0
BBX 12 15 0 -3
BITMAP
0000
0000
0000
0000
0F00
1980
30C0
30C0
7FE0
6060
6060
6060
0040
00C0
0070
ENDCHAR

STARTCHAR breve
ENCODING 162
SWIDTH 723 0
DWIDTH 12 0
BBX 12 15 0 -3
BITMAP
0000
0000
0000
1980
0F00
0000
0000
0000
0000
0000
0000
0000
0000
0000
0000
ENDCHAR

STARTCHAR Lslash
ENCODING 163
SWIDTH 723 0
DWIDTH 12 0
BBX 12 15 0 -3
BITMAP
0000
0000
0000
0000
3000
3000
3400
3800
3000
7000
3000
3FE0
0000
0000
0000
ENDCHAR

STARTCHAR currency
ENCODING 164
SWIDTH 723 0
DWIDTH 12 0
BBX 12 15 0 -3
BITMAP
0000
0000
0000
0000
0000
2040
1F80
1980
1980
1F80
2040
0000
0000
0000
0000
ENDCHAR

STARTCHAR Lcaron
ENCODING 165
SWIDTH 723 0
DWIDTH 12 0
BBX 12 15 0 -3
BITMAP
0000
0000
0000
0000
3300
3300
3100
3200
3000
3000
3000
3FE0
0000
0000
0000
ENDCHAR

STARTCHAR Sacute
ENCODING 166
SWIDTH 723 0
DWIDTH 12 0
BBX 12 15 0 -3
BITMAP
0000
0300
0600
0000
3FC0
6060
6000
3FC0
0060
0060
6060
3FC0
0000
0000
0000
ENDCHAR

STARTCHAR section
ENCODING 167
SWIDTH 723 0
DWIDTH 12 0
BBX 12 15 0 -3
BITMAP
0000
0000
0000
0000
0FC0
1860
0C00
0FC0
1860
0FC0
00C0
1860
0FC0
0000
0000
ENDCHAR

STARTCHAR dieresis
ENCODING 168
SWIDTH 723 0
DWIDTH 12 0
BBX 12 15 0 -3
BITMAP
0000
0000
0000
0CC0
0CC0
0000
0000
0000
0000
0000
0000
0000
0000
0000
0000
ENDCHAR

STARTCHAR Scaron
ENCODING 169
SWIDTH 723 0
DWIDTH 12 0
BBX 12 15 0 -3
BITMAP
0000
1980
0600
0000
3FC0
6060
6000
3FC0
0060
0060
6060
3FC0
0000
0000
0000
ENDCHAR

STARTCHAR Scommaaccent
ENCODING 170
SWIDTH 723 0
DWIDTH 12 0
BBX 12 15 0 -3
BITMAP
0000
0000
0000
0000
3FC0
6060
6000
3FC0
0060
0060
6060
3FC0
0E00
0200
0C00
ENDCHAR

STARTCHAR Tcaron
ENCODING 171
SWIDTH 723 0
DWIDTH 12 0
BBX 12 15 0 -3
BITMAP
0000
1980
0600
0000
7FE0
0600
0600
0600
0600
0600
0600
0600
0000
0000
0000
ENDCHAR

STARTCHAR Zacute
ENCODING 172
SWIDTH 723 0
DWIDTH 12 0
BBX 12 15 0 -3
BITMAP
0000
0300
0600
0000
7FC0
0180
0300
0600
0C00
1800
3000
7FC0
0000
0000
0000
ENDCHAR

STARTCHAR hyphen
ENCODING 173
SWIDTH 723 0
DWIDTH 12 0
BBX 12 15 0 -3
BITMAP
0000
0000
0000
0000
0000
0000
0000
7FC0
0000
0000
0000
0000
0000
0000
0000
ENDCHAR

STARTCHAR Zcaron
ENCODING 174
SWIDTH 723 0
DWIDTH 12 0
BBX 12 15 0 -3
BITMAP
0000
3300
0C00
0000
7FC0
0180
0300
0600
0C00
1800
3000
7FC0
0000
0000
0000
ENDCHAR

STARTCHAR Zdotaccent
ENCODING 175
SWIDTH 723 0
DWIDTH 12 0
BBX 12 15 0 -3
BITMAP
0000
0600
0600
0000
7FC0
0180
0300
0600
0C00
1800
3000
7FC0
0000
0000
0000
ENDCHAR

STARTCHAR degree
ENCODING 176
SWIDTH 723 0
DWIDTH 12 0
BBX 12 15 0 -3
BITMAP
0000
0000
0000
0F00
1B80
0F00
0000
0000
0000
0000
0000
0000
0000
0000
0000
ENDCHAR

STARTCHAR aogonek
ENCODING 177
SWIDTH 723 0
DWIDTH 12 0
BBX 12 15 0 -3
BITMAP
0000
0000
0000
0000
0000
0000
1FC0
0060
3FE0
6060
6060
3FB0
0040
00C0
0070
ENDCHAR

STARTCHAR ogonek
ENCODING 178
SWIDTH 723 0
DWIDTH 12 0
BBX 12 15 0 -3
BITMAP
0000
0000
0000
0000
0000
0000
0000
0000
0000
0000
0000
0000
0400
0C00
0700
ENDCHAR

STARTCHAR lslash
ENCODING 179
SWIDTH 723 0
DWIDTH 12 0
BBX 12 15 0 -3
BITMAP
0000
0000
0000
0000
1E00
0680
0700
0E00
1600
0600
0600
7FE0
0000
0000
0000
ENDCHAR

STARTCHAR acute
ENCODING 180
SWIDTH 723 0
DWIDTH 12 0
BBX 12 15 0 -3
BITMAP
0000
0000
0600
0C00
0000
0000
0000
0000
0000
0000
0000
0000
0000
0000
0000
ENDCHAR

STARTCHAR lcaron
ENCODING 181
SWIDTH 723 0
DWIDTH 12 0
BBX 12 15 0 -3
BITMAP
0000
0000
0000
0000
1EC0
06C0
0640
0680
0600
0600
0600
7FE0
0000
0000
0000
ENDCHAR

STARTCHAR sacute
ENCODING 182
SWIDTH 723 0
DWIDTH 12 0
BBX 12 15 0 -3
BITMAP
0000
0000
0000
0300
0600
0000
3FC0
6020
3FC0
0060
6060
3FC0
0000
0000
0000
ENDCHAR

STARTCHAR caron
ENCODING 183
SWIDTH 723 0
DWIDTH 12 0
BBX 12 15 0 -3
BITMAP
0000
0000
0000
1980
0600
0000
0000
0000
0000
0000
0000
0000
0000
0000
0000
ENDCHAR

STARTCHAR commaaccent
ENCODING 184
SWIDTH 723 0
DWIDTH 12 0
BBX 12 15 0 -3
BITMAP
0000
0000
0000
0000
0000
0000
0000
0000
0000
0000
0000
0000
0E00
0200
0C00
ENDCHAR

STARTCHAR scaron
ENCODING 185
SWIDTH 723 0
DWIDTH 12 0
BBX 12 15 0 -3
BITMAP
0000
0000
0000
1980
0600
0000
3FC0
6020
3FC0
0060
6060
3FC0
0000
0000
0000
ENDCHAR

STARTCHAR scommaaccent
ENCODING 186
SWIDTH 723 0
DWIDTH 12 0
BBX 12 15 0 -3
BITMAP
0000
0000
0000
0000
0000
0000
3FC0
6020
3FC0
0060
6060
3FC0
0700
0100
0600
ENDCHAR

STARTCHAR tcaron
ENCODING 187
SWIDTH 723 0
DWIDTH 12 0
BBX 12 15 0 -3
BITMAP
0000
0000
0300
0300
1900
1A00
7F80
1800
1800
1800
1800
0FC0
0000
0000
0000
ENDCHAR

STARTCHAR zacute
ENCODING 188
SWIDTH 723 0
DWIDTH 12 0
BBX 12 15 0 -3
BITMAP
0000
0000
0000
0180
0300
0000
3FE0
00E0
0380
0E00
3800
3FE0
0000
0000
0000
ENDCHAR

STARTCHAR hungarumlaut
ENCODING 189
SWIDTH 723 0
DWIDTH 12 0
BBX 12 15 0 -3
BITMAP
0000
0000
0000
1B00
3600
0000
0000
0000
0000
0000
0000
0000
0000
0000
0000
ENDCHAR

STARTCHAR zcaron
ENCODING 190
SWIDTH 723 0
DWIDTH 12 0
BBX 12 15 0 -3
BITMAP
0000
0000
0000
0CC0
0300
0000
3FE0
00E0
0380
0E00
3800
3FE0
0000
0000
0000
ENDCHAR

STARTCHAR zdotaccent
ENCODING 191
SWIDTH 723 0
DWIDTH 12 0
BBX 12 15 0 -3
BITMAP
0000
0000
0000
0300
0300
0000
3FE0
00E0
0380
0E00
3800
3FE0
0000
0000
0000
ENDCHAR

STARTCHAR Racute
ENCODING 192
SWIDTH 723 0
DWIDTH 12 0
BBX 12 15 0 -3
BITMAP
0000
0300
0600
0000
7FC0
6060
6060
6060
7FC0
6180
60C0
6060
0000
0000
0000
ENDCHAR

STARTCHAR Aacute
ENCODING 193
SWIDTH 723 0
DWIDTH 12 0
BBX 12 15 0 -3
BITMAP
0000
0300
0600
0000
0F00
1980
30C0
30C0
7FE0
6060
6060
6060
0000
0000
0000
ENDCHAR

STARTCHAR Acircumflex
ENCODING 194
SWIDTH 723 0
DWIDTH 12 0
BBX 12 15 0 -3
BITMAP
0000
0600
1980
0000
0F00
1980
30C0
30C0
7FE0
6060
6060
6060
0000
0000
0000
ENDCHAR

STARTCHAR Abreve
ENCODING 195
SWIDTH 723 0
DWIDTH 12 0
BBX 12 15 0 -3
BITMAP
0000
1980
0F00
0000
0F00
1980
30C0
30C0
7FE0
6060
6060
6060
0000
0000
0000
ENDCHAR

STARTCHAR Adieresis
ENCODING 196
SWIDTH 723 0
DWIDTH 12 0
BBX 12 15 0 -3
BITMAP
0000
1980
1980
0000
0F00
1980
30C0
30C0
7FE0
6060
6060
6060
0000
0000
0000
ENDCHAR

STARTCHAR Lacute
ENCODING 197
SWIDTH 723 0
DWIDTH 12 0
BBX 12 15 0 -3
BITMAP
0000
0C00
1800
0000
3000
3000
3000
3000
3000
3000
3000
3FE0
0000
0000
0000
ENDCHAR

STARTCHAR Cacute
ENCODING 198
SWIDTH 723 0
DWIDTH 12 0
BBX 12 15 0 -3
BITMAP
0000
0300
0600
0000
3FC0
6060
6000
6000
6000
6000
6060
3FC0
0000
0000
0000
ENDCHAR

STARTCHAR Ccedilla
ENCODING 199
SWIDTH 723 0
DWIDTH 12 0
BBX 12 15 0 -3
BITMAP
0000
0000
0000
0000
3FC0
6060
6000
6000
6000
6000
6060
3FC0
0700
1C00
0000
ENDCHAR

STARTCHAR Ccaron
ENCODING 200
SWIDTH 723 0
DWIDTH 12 0
BBX 12 15 0 -3
BITMAP
0000
1980
0600
0000
3FC0
6060
6000
6000
6000
6000
6060
3FC0
0000
0000
0000
ENDCHAR

STARTCHAR Eacute
ENCODING 201
SWIDTH 723 0
DWIDTH 12 0
BBX 12 15 0 -3
BITMAP
0000
0180
0300
0000
3FE0
3000
3000
3FC0
3000
3000
3000
3FE0
0000
0000
0000
ENDCHAR

STARTCHAR Eogonek
ENCODING 202
SWIDTH 723 0
DWIDTH 12 0
BBX 12 15 0 -3
BITMAP
0000
0000
0000
0000
3FE0
3000
3000
3FC0
3000
3000
3000
3FE0
0040
00C0
0070
ENDCHAR

STARTCHAR Edieresis
ENCODING 203
SWIDTH 723 0
DWIDTH 12 0
BBX 12 15 0 -3
BITMAP
0000
0CC0
0CC0
0000
3FE0
3000
3000
3FC0
3000
3000
3000
3FE0
0000
0000
0000
ENDCHAR

STARTCHAR Ecaron
ENCODING 204
SWIDTH 723 0
DWIDTH 12 0
BBX 12 15 0 -3
BITMAP
0000
0CC0
0300
0000
3FE0
3000
3000
3FC0
3000
3000
3000
3FE0
0000
0000
0000
ENDCHAR

STARTCHAR Iacute
ENCODING 205
SWIDTH 723 0
DWIDTH 12 0
BBX 12 15 0 -3
BITMAP
0000
0300
0600
0000
7FE0
0600
0600
0600
0600
0600
0600
7FE0
0000
0000
0000
ENDCHAR

STARTCHAR Icircumflex
ENCODING 206
SWIDTH 723 0
DWIDTH 12 0
BBX 12 15 0 -3
BITMAP
0000
0600
1980
0000
7FE0
0600
0600
0600
0600
0600
0600
7FE0
0000
0000
0000
ENDCHAR

STARTCHAR Dcaron
ENCODING 207
SWIDTH 723 0
DWIDTH 12 0
BBX 12 15 0 -3
BITMAP
0000
1980
0600
0000
3FC0
3060
3060
3060
3060
3060
3060
3FC0
0000
0000
0000
ENDCHAR

STARTCHAR Dcroat
ENCODING 208
SWIDTH 723 0
DWIDTH 12 0
BBX 12 15 0 -3
BITMAP
0000
0000
0000
0000
3FC0
3060
3060
FE60
3060
3060
3060
3FC0
0000
0000
0000
ENDCHAR

STARTCHAR Nacute
ENCODING 209
SWIDTH 723 0
DWIDTH 12 0
BBX 12 15 0 -3
BITMAP
0000
0300
0600
0000
6060
7060
7860
6C60
6660
6360
61E0
60E0
0000
0000
0000
ENDCHAR

STARTCHAR Ncaron
ENCODING 210
SWIDTH 723 0
DWIDTH 12 0
BBX 12 15 0 -3
BITMAP
0000
1980
0600
0000
6060
7060
7860
6C60
6660
6360
61E0
60E0
0000
0000
0000
ENDCHAR

STARTCHAR Oacute
ENCODING 211
SWIDTH 723 0
DWIDTH 12 0
BBX 12 15 0 -3
BITMAP
0000
0300
0600
0000
3FC0
6060
6060
6060
6060
6060
6060
3FC0
0000
0000
0000
ENDCHAR

STARTCHAR Ocircumflex
ENCODING 212
SWIDTH 723 0
DWIDTH 12 0
BBX 12 15 0 -3
BITMAP
0000
0600
1980
0000
3FC0
6060
6060
6060
6060
6060
6060
3FC0
0000
0000
0000
ENDCHAR

STARTCHAR Ohungarumlaut
ENCODING 213
SWIDTH 723 0
DWIDTH 12 0
BBX 12 15 0 -3
BITMAP
0000
0D80
1B00
0000
3FC0
6060
6060
6060
6060
6060
6060
3FC0
0000
0000
0000
ENDCHAR

STARTCHAR Odieresis
ENCODING 214
SWIDTH 723 0
DWIDTH 12 0
BBX 12 15 0 -3
BITMAP
0000
1980
1980
0000
3FC0
6060
6060
6060
6060
6060
6060
3FC0
0000
0000
0000
ENDCHAR

STARTCHAR multiply
ENCODING 215
SWIDTH 723 0
DWIDTH 12 0
BBX 12 15 0 -3
BITMAP
0000
0000
0000
0000
0000
3180
1B00
0E00
1B00
3180
0000
0000
0000
0000
0000
ENDCHAR

STARTCHAR Rcaron
ENCODING 216
SWIDTH 723 0
DWIDTH 12 0
BBX 12 15 0 -3
BITMAP
0000
1980
0600
0000
7FC0
6060
6060
6060
7FC0
6180
60C0
6060
0000
0000
0000
ENDCHAR

STARTCHAR Uring
ENCODING 217
SWIDTH 723 0
DWIDTH 12 0
BBX 12 15 0 -3
BITMAP
0600
0D00
0600
0000
6060
6060
6060
6060
6060
6060
6060
3FC0
0000
0000
0000
ENDCHAR

STARTCHAR Uacute
ENCODING 218
SWIDTH 723 0
DWIDTH 12 0
BBX 12 15 0 -3
BITMAP
0000
0300
0600
0000
6060
6060
6060
6060
6060
6060
6060
3FC0
0000
0000
0000
ENDCHAR

STARTCHAR Uhungarumlaut
ENCODING 219
SWIDTH 723 0
DWIDTH 12 0
BBX 12 15 0 -3
BITMAP
0000
0D80
1B00
0000
6060
6060
6060
6060
6060
6060
6060
3FC0
0000
0000
0000
ENDCHAR

STARTCHAR Udieresis
ENCODING 220
SWIDTH 723 0
DWIDTH 12 0
BBX 12 15 0 -3
BITMAP
0000
1980
1980
0000
6060
6060
6060
6060
6060
6060
6060
3FC0
0000
0000
0000
ENDCHAR

STARTCHAR Yacute
ENCODING 221
SWIDTH 723 0
DWIDTH 12 0
BBX 12 15 0 -3
BITMAP
0000
0300
0600
0000
6060
30C0
1980
0F00
0600
0600
0600
0600
0000
0000
0000
ENDCHAR

STARTCHAR Tcommaaccent
ENCODING 222
SWIDTH 723 0
DWIDTH 12 0
BBX 12 15 0 -3
BITMAP
0000
0000
0000
0000
7FE0
0600
0600
0600
0600
0600
0600
0600
0E00
0200
0C00
ENDCHAR

STARTCHAR germandbls
ENCODING 223
SWIDTH 723 0
DWIDTH 12 0
BBX 12 15 0 -3
BITMAP
0000
0000
0000
3E00
6300
6300
6600
6180
60C0
60C0
6C80
6700
0000
0000
0000
ENDCHAR

STARTCHAR racute
ENCODING 224
SWIDTH 723 0
DWIDTH 12 0
BBX 12 15 0 -3
BITMAP
0000
0000
0000
0300
0600
0000
3BC0
1C60
1800
1800
1800
1800
0000
0000
0000
ENDCHAR

STARTCHAR aacute
ENCODING 225
SWIDTH 723 0
DWIDTH 12 0
BBX 12 15 0 -3
BITMAP
0000
0000
0000
0180
0300
0000
1FC0
0060
3FE0
6060
6060
3FB0
0000
0000
0000
ENDCHAR

STARTCHAR acircumflex
ENCODING 226
SWIDTH 723 0
DWIDTH 12 0
BBX 12 15 0 -3
BITMAP
0000
0000
0000
0300
0CC0
0000
1FC0
0060
3FE0
6060
6060
3FB0
0000
0000
0000
ENDCHAR

STARTCHAR abreve
ENCODING 227
SWIDTH 723 0
DWIDTH 12 0
BBX 12 15 0 -3
BITMAP
0000
0000
0000
1980
0F00
0000
1FC0
0060
3FE0
6060
6060
3FB0
0000
0000
0000
ENDCHAR

STARTCHAR adieresis
ENCODING 228
SWIDTH 723 0
DWIDTH 12 0
BBX 12 15 0 -3
BITMAP
0000
0000
0000
0CC0
0CC0
0000
1FC0
0060
3FE0
6060
6060
3FB0
0000
0000
0000
ENDCHAR

STARTCHAR lacute
ENCODING 229
SWIDTH 723 0
DWIDTH 12 0
BBX 12 15 0 -3
BITMAP
0000
0600
0C00
0000
1E00
0600
0600
0600
0600
0600
0600
7FE0
0000
0000
0000
ENDCHAR

STARTCHAR cacute
ENCODING 230
SWIDTH 723 0
DWIDTH 12 0
BBX 12 15 0 -3
BITMAP
0000
0000
0000
0300
0600
0000
3FC0
6060
6000
6000
6060
3FC0
0000
0000
0000
ENDCHAR

STARTCHAR ccedilla
ENCODING 231
SWIDTH 723 0
DWIDTH 12 0
BBX 12 15 0 -3
BITMAP
0000
0000
0000
0000
0000
0000
3FC0
6060
6000
6000
6060
3FC0
0700
1C00
0000
ENDCHAR

STARTCHAR ccaron
ENCODING 232
SWIDTH 723 0
DWIDTH 12 0
BBX 12 15 0 -3
BITMAP
0000
0000
0000
1980
0600
0000
3FC0
6060
6000
6000
6060
3FC0
0000
0000
0000
ENDCHAR

STARTCHAR eacute
ENCODING 233
SWIDTH 723 0
DWIDTH 12 0
BBX 12 15 0 -3
BITMAP
0000
0000
0000
0300
0600
0000
3FC0
6060
7FE0
6000
6060
3FC0
0000
0000
0000
ENDCHAR

STARTCHAR eogonek
ENCODING 234
SWIDTH 723 0
DWIDTH 12 0
BBX 12 15 0 -3
BITMAP
0000
0000
0000
0000
0000
0000
3FC0
6060
7FE0
6000
6060
3FC0
0400
0C00
0700
ENDCHAR

STARTCHAR edieresis
ENCODING 235
SWIDTH 723 0
DWIDTH 12 0
BBX 12 15 0 -3
BITMAP
0000
0000
0000
1980
1980
0000
3FC0
6060
7FE0
6000
6060
3FC0
0000
0000
0000
ENDCHAR

STARTCHAR ecaron
ENCODING 236
SWIDTH 723 0
DWIDTH 12 0
BBX 12 15 0 -3
BITMAP
0000
0000
0000
1980
0600
0000
3FC0
6060
7FE0
6000
6060
3FC0
0000
0000
0000
ENDCHAR

STARTCHAR iacute
ENCODING 237
SWIDTH 723 0
DWIDTH 12 0
BBX 12 15 0 -3
BITMAP
0000
0000
0000
0300
0600
0000
1E00
0600
0600
0600
0600
7FE0
0000
0000
0000
ENDCHAR

STARTCHAR icircumflex
ENCODING 238
SWIDTH 723 0
DWIDTH 12 0
BBX 12 15 0 -3
BITMAP
0000
0000
0000
0600
1980
0000
1E00
0600
0600
0600
0600
7FE0
0000
0000
0000
ENDCHAR

STARTCHAR dcaron
ENCODING 239
SWIDTH 723 0
DWIDTH 12 0
BBX 12 15 0 -3
BITMAP
0000
0000
0000
0000
01B0
01B0
7D90
C3A0
C180
C180
C380
7D80
0000
0000
0000
ENDCHAR

STARTCHAR dcroat
ENCODING 240
SWIDTH 723 0
DWIDTH 12 0
BBX 12 15 0 -3
BITMAP
0000
0000
0000
0000
00C0
03F0
7EC0
C1C0
C0C0
C0C0
C1C0
7EC0
0000
0000
0000
ENDCHAR

STARTCHAR nacute
ENCODING 241
SWIDTH 723 0
DWIDTH 12 0
BBX 12 15 0 -3
BITMAP
0000
0000
0000
0300
0600
0000
6FC0
7060
6060
6060
6060
6060
0000
0000
0000
ENDCHAR

STARTCHAR ncaron
ENCODING 242
SWIDTH 723 0
DWIDTH 12 0
BBX 12 15 0 -3
BITMAP
0000
0000
0000
1980
0600
0000
6FC0
7060
6060
6060
6060
6060
0000
0000
0000
ENDCHAR

STARTCHAR oacute
ENCODING 243
SWIDTH 723 0
DWIDTH 12 0
BBX 12 15 0 -3
BITMAP
0000
0000
0000
0300
0600
0000
3FC0
6060
6060
6060
6060
3FC0
0000
0000
0000
ENDCHAR

STARTCHAR ocircumflex
ENCODING 244
SWIDTH 723 0
DWIDTH 12 0
BBX 12 15 0 -3
BITMAP
0000
0000
0000
0600
1980
0000
3FC0
6060
6060
6060
6060
3FC0
0000
0000
0000
ENDCHAR

STARTCHAR ohungarumlaut
ENCODING 245
SWIDTH 723 0
DWIDTH 12 0
BBX 12 15 0 -3
BITMAP
0000
0000
0000
06C0
0D80
0000
3FC0
6060
6060
6060
6060
3FC0
0000
0000
0000
ENDCHAR

STARTCHAR odieresis
ENCODING 246
SWIDTH 723 0
DWIDTH 12 0
BBX 12 15 0 -3
BITMAP
0000
0000
0000
1980
1980
0000
3FC0
6060
6060
6060
6060
3FC0
0000
0000
0000
ENDCHAR

STARTCHAR divide
ENCODING 247
SWIDTH 723 0
DWIDTH 12 0
BBX 12 15 0 -3
BITMAP
0000
0000
0000
0000
0C00
0000
0000
7F80
0000
0000
0C00
0000
0000
0000
0000
ENDCHAR

STARTCHAR rcaron
ENCODING 248
SWIDTH 723 0
DWIDTH 12 0
BBX 12 15 0 -3
BITMAP
0000
0000
0000
1980
0600
0000
3BC0
1C60
1800
1800
1800
1800
0000
0000
0000
ENDCHAR

STARTCHAR uring
ENCODING 249
SWIDTH 723 0
DWIDTH 12 0
BBX 12 15 0 -3
BITMAP
0000
0000
0600
0B00
0600
0000
6060
6060
6060
6060
60E0
3F60
0000
0000
0000
ENDCHAR

STARTCHAR uacute
ENCODING 250
SWIDTH 723 0
DWIDTH 12 0
BBX 12 15 0 -3
BITMAP
0000
0000
0000
0300
0600
0000
6060
6060
6060
6060
60E0
3F60
0000
0000
0000
ENDCHAR

STARTCHAR uhungarumlaut
ENCODING 251
SWIDTH 723 0
DWIDTH 12 0
BBX 12 15 0 -3
BITMAP
0000
0000
0000
0D80
1B00
0000
6060
6060
6060
6060
60E0
3F60
0000
0000
0000
ENDCHAR

STARTCHAR udieresis
ENCODING 252
SWIDTH 723 0
DWIDTH 12 0
BBX 12 15 0 -3
BITMAP
0000
0000
0000
1980
1980
0000
6060
6060
6060
6060
60E0
3F60
0000
0000
0000
ENDCHAR

STARTCHAR yacute
ENCODING 253
SWIDTH 723 0
DWIDTH 12 0
BBX 12 15 0 -3
BITMAP
0000
0000
0000
0300
0600
0000
6060
6060
30C0
1980
0F00
0600
0C00
3800
0000
ENDCHAR

STARTCHAR tcommaaccent
ENCODING 254
SWIDTH 723 0
DWIDTH 12 0
BBX 12 15 0 -3
BITMAP
0000
0000
0000
0000
1800
1800
7F80
1800
1800
1800
1800
0FC0
0700
0100
0600
ENDCHAR

STARTCHAR dotaccent
ENCODING 255
SWIDTH 723 0
DWIDTH 12 0
BBX 12 15 0 -3
BITMAP
0000
0000
0000
0600
0600
0000
0000
0000
0000
0000
0000
0000
0000
0000
0000
ENDCHAR
ENDFONT
